<?xml version="1.0" standalone="no"?>
<svg t="1499755893143" class="icon" style="" viewBox="0 0 1031 1024" version="1.1" xmlns="http://www.w3.org/2000/svg" p-id="1159" xmlns:xlink="http://www.w3.org/1999/xlink" width="201.3671875" height="200"><defs><style type="text/css"></style></defs><path d="M46.509005 234.950666h938.198904c16.839468 0 30.471417 13.63195 30.471418 30.471417v712.068912c0 16.839468-13.63195 30.471417-30.471418 30.471417H46.509005c-16.839468 0-30.471417-13.63195-30.471417-30.471417V265.422083c0-16.839468 13.63195-30.471417 30.471417-30.471417z" fill="#7CB0F1" p-id="1160"></path><path d="M984.707909 1024H46.509005c-25.660141 0-46.509005-20.848865-46.509005-46.509005V265.422083c0-25.660141 20.848865-45.707126 46.509005-45.707126h938.198904c25.660141 0 46.509005 20.848865 46.509006 45.707126v712.068912c-0.801879 25.660141-21.650744 46.509005-46.509006 46.509005zM46.509005 250.988254c-8.018794 0-14.433829 6.415035-14.433829 13.63195v712.068911c0 8.018794 6.415035 14.433829 14.433829 14.433829h938.198904c8.018794 0 14.433829-6.415035 14.433829-14.433829V265.422083c0-8.018794-6.415035-13.63195-14.433829-13.63195H46.509005z" fill="" p-id="1161"></path><path d="M688.012529 16.037588H339.194988c-10.424432 0-19.245106 8.820673-19.245105 19.245106v199.667972h62.546593V76.178543h272.638998v158.772123h52.122161V35.282694c0-10.424432-8.820673-19.245106-19.245106-19.245106z" fill="#7CB0F1" p-id="1162"></path><path d="M707.257635 250.988254h-52.122161c-8.820673 0-16.037588-7.216915-16.037588-16.037588V92.216132h-240.563822v142.734534c0 8.820673-7.216915 16.037588-16.037588 16.037588h-62.546593c-8.820673 0-16.037588-7.216915-16.037589-16.037588V35.282694c0-19.245106 16.037588-35.282694 35.282694-35.282694h348.817541c19.245106 0 35.282694 16.037588 35.282694 35.282694v199.667972c0 8.820673-7.216915 16.037588-16.037588 16.037588z m-36.084573-32.075176h20.046985V35.282694c0-1.603759-1.603759-3.207518-4.009397-3.207518H339.194988c-1.603759 0-3.207518 1.603759-3.207517 3.207518v183.630384h30.471417V76.178543c0-8.820673 7.216915-16.037588 16.037588-16.037588h272.638998c8.820673 0 16.037588 7.216915 16.037588 16.037588v142.734535zM946.217698 960.651527H82.593579c-8.820673 0-16.037588-7.216915-16.037588-16.037588s7.216915-16.037588 16.037588-16.037588H946.217698c8.820673 0 16.037588 7.216915 16.037588 16.037588s-7.216915 16.037588-16.037588 16.037588z" fill="" p-id="1163"></path><path d="M156.366484 234.950666h102.640564v772.209866H156.366484z" fill="#4376B6" p-id="1164"></path><path d="M259.007048 1024H156.366484c-8.820673 0-16.037588-7.216915-16.037588-16.037588V234.950666c0-8.820673 7.216915-16.037588 16.037588-16.037588h102.640564c8.820673 0 16.037588 7.216915 16.037588 16.037588v772.209866c0 9.622553-7.216915 16.839468-16.037588 16.839468z m-86.602976-32.075176h70.565388V250.988254h-70.565388v740.93657z" fill="" p-id="1165"></path><path d="M765.794832 234.950666h102.640563v772.209866H765.794832z" fill="#4376B6" p-id="1166"></path><path d="M868.435395 1024H765.794832c-8.820673 0-16.037588-7.216915-16.037588-16.037588V234.950666c0-8.820673 7.216915-16.037588 16.037588-16.037588h102.640563c8.820673 0 16.037588 7.216915 16.037589 16.037588v772.209866c0 9.622553-7.216915 16.839468-16.037589 16.839468z m-86.602975-32.075176h70.565387V250.988254h-70.565387v740.93657z" fill="" p-id="1167"></path></svg>